<svg width="132" height="44" viewBox="0 0 132 44" fill="none" xmlns="http://www.w3.org/2000/svg">
<path d="M31.582 0.766602H38.0273V28.6572C38.0273 37.5635 31.3477 43.8916 21.2109 43.8916C10.957 43.8916 4.33594 37.5635 4.33594 28.6572V0.766602H10.7812V28.1299C10.7812 33.8721 14.7656 38.0322 21.2109 38.0322C27.5977 38.0322 31.582 33.8721 31.582 28.1299V0.766602ZM43.6992 43.1885V0.766602H58.8164C68.6602 0.766602 73.5234 6.68457 73.5234 14.5361C73.5234 22.3291 68.6602 28.3057 58.8164 28.3057H50.1445V43.1885H43.6992ZM50.1445 22.7979H58.1719C64.4414 22.7979 67.0195 19.2822 67.0195 14.5361C67.0195 9.73145 64.4414 6.27441 58.1719 6.27441H50.1445V22.7979ZM83.7656 0.766602V43.1885H77.3203V0.766602H83.7656Z" fill="#404040"/>
<path d="M100.91 43.3306C100.88 43.3009 100.84 43.2843 100.798 43.2843H90C89.4477 43.2843 89 42.8366 89 42.2843V2.0001C89 1.44782 89.4477 1.0001 90 1.0001H104.734C105.287 1.0001 105.734 1.44782 105.734 2.0001V12.7998C105.734 13.6907 106.812 14.1368 107.441 13.5069L118.456 2.49236C118.847 2.10184 119.48 2.10184 119.87 2.49236L130.214 12.836C130.604 13.2265 130.604 13.8597 130.214 14.2502L120.679 23.7852C120.049 24.4151 120.495 25.4923 121.386 25.4923H130.284C130.836 25.4923 131.284 25.94 131.284 26.4923V42.2833C131.284 42.8356 130.836 43.2833 130.284 43.2833H105.735C105.735 43.2833 105.734 43.2835 105.734 43.2838V43.2838C105.734 43.2841 105.734 43.2843 105.734 43.2843H101.245C101.203 43.2843 101.163 43.3009 101.133 43.3306V43.3306C101.072 43.3924 100.971 43.3924 100.91 43.3306V43.3306Z" fill="#0158DE"/>
</svg>
