<svg width="25" height="20" viewBox="0 0 25 20" fill="none" xmlns="http://www.w3.org/2000/svg">
<path d="M4.5 19.125V16.875H6.3L8.52187 9.47812C8.67187 8.99062 8.94844 8.60156 9.35156 8.31094C9.75469 8.02031 10.2 7.875 10.6875 7.875H14.0625C14.55 7.875 14.9953 8.02031 15.3984 8.31094C15.8016 8.60156 16.0781 8.99062 16.2281 9.47812L18.45 16.875H20.25V19.125H4.5ZM8.6625 16.875H16.0875L14.0625 10.125H10.6875L8.6625 16.875ZM11.25 5.625V0H13.5V5.625H11.25ZM17.9437 8.40937L16.3406 6.80625L20.3344 2.84062L21.9094 4.41562L17.9437 8.40937ZM19.125 13.5V11.25H24.75V13.5H19.125ZM6.80625 8.40937L2.84062 4.41562L4.41562 2.84062L8.40937 6.80625L6.80625 8.40937ZM0 13.5V11.25H5.625V13.5H0Z" fill="#ED3020"/>
</svg>
